<svg width="512" height="512" viewBox="0 0 512 512" fill="none" xmlns="http://www.w3.org/2000/svg">
<g clip-path="url(#clip0_83_56)">
<rect width="512" height="512" fill="#371F7A"/>
<rect y="312" width="512" height="200" fill="white"/>
<path d="M256 56L271.675 274.158L437.019 130.981L293.842 296.325L512 312L293.842 327.675L437.019 493.019L271.675 349.842L256 568L240.325 349.842L74.9807 493.019L218.158 327.675L0 312L218.158 296.325L74.9807 130.981L240.325 274.158L256 56Z" fill="white"/>
<path d="M16 496V328H24.9593L89.9142 474.16L88.7353 478.48C88.4995 475.28 88.3031 470.72 88.1459 464.8C87.9887 458.88 87.8708 452.4 87.7922 445.36C87.7136 438.32 87.635 431.28 87.5565 424.24C87.4779 417.04 87.3993 410.4 87.3207 404.32C87.3207 398.24 87.3207 393.36 87.3207 389.68V328H96.5157V496H87.2028L22.8374 352.48L23.5447 347.44C23.7018 350.96 23.8197 355.28 23.8983 360.4C24.0555 365.36 24.2127 370.64 24.3699 376.24C24.527 381.84 24.6449 387.44 24.7235 393.04C24.8807 398.48 24.9986 403.52 25.0772 408.16C25.1558 412.8 25.1951 416.64 25.1951 419.68V496H16Z" fill="#371F7A"/>
<path d="M123.166 496L160.3 328H171.499L208.279 496H198.023L171.971 377.92C171.185 373.76 170.438 370 169.731 366.64C169.102 363.28 168.473 360.16 167.845 357.28C167.216 354.4 166.587 351.44 165.959 348.4C165.408 345.2 164.819 341.68 164.19 337.84L166.902 337.6C166.116 342.08 165.408 346 164.78 349.36C164.151 352.56 163.522 355.68 162.894 358.72C162.343 361.6 161.715 364.64 161.007 367.84C160.3 371.04 159.514 374.8 158.65 379.12L132.715 496H123.166ZM138.609 451.12L142.264 432.88H188.593L191.068 451.12H138.609Z" fill="#371F7A"/>
<path d="M234.963 496V328H272.097C278.777 328 284.789 330.16 290.133 334.48C295.477 338.8 300.036 344.72 303.808 352.24C307.58 359.76 310.488 368.64 312.532 378.88C314.575 388.96 315.597 400 315.597 412C315.597 423.84 314.575 434.96 312.532 445.36C310.488 455.6 307.58 464.48 303.808 472C300.036 479.52 295.477 485.44 290.133 489.76C284.789 493.92 278.777 496 272.097 496H234.963ZM244.158 481.12L243.097 477.76H271.507C276.93 477.76 281.763 476.16 286.007 472.96C290.251 469.6 293.827 464.96 296.735 459.04C299.643 453.12 301.883 446.24 303.454 438.4C305.026 430.4 305.812 421.6 305.812 412C305.812 402.4 305.026 393.68 303.454 385.84C301.883 377.84 299.643 370.88 296.735 364.96C293.827 359.04 290.251 354.48 286.007 351.28C281.763 347.92 276.93 346.24 271.507 346.24H242.743L244.158 343.36V481.12Z" fill="#371F7A"/>
<path d="M342.917 496V477.52H361.425V346.48H342.917V328H389.246V346.48H370.621V477.52H389.246V496H342.917Z" fill="#371F7A"/>
<path d="M424.915 496V328H465.586C470.458 328 474.859 330.32 478.789 334.96C482.718 339.44 485.862 345.52 488.22 353.2C490.577 360.88 491.756 369.44 491.756 378.88C491.756 388.96 490.538 397.92 488.102 405.76C485.744 413.44 482.482 419.52 478.317 424C474.23 428.32 469.633 430.48 464.525 430.48H434.11V496H424.915ZM484.683 496L459.455 422.08L468.651 416.08L496 496H484.683ZM434.11 412.24H464.053C467.511 412.24 470.576 410.8 473.248 407.92C475.999 405.04 478.121 401.12 479.614 396.16C481.186 391.2 481.972 385.6 481.972 379.36C481.972 372.96 481.146 367.28 479.496 362.32C477.924 357.36 475.724 353.44 472.894 350.56C470.144 347.68 467 346.24 463.464 346.24H434.11V412.24Z" fill="#371F7A"/>
</g>
<defs>
<clipPath id="clip0_83_56">
<rect width="512" height="512" fill="white"/>
</clipPath>
</defs>
</svg>
